<?xml version="1.0" encoding="utf-8"?>
<!-- Generator: Adobe Illustrator 23.0.1, SVG Export Plug-In . SVG Version: 6.00 Build 0)  -->
<svg version="1.1" id="Laag_1" xmlns="http://www.w3.org/2000/svg" xmlns:xlink="http://www.w3.org/1999/xlink" x="0px" y="0px"
	 viewBox="0 0 260 430" style="enable-background:new 0 0 260 430;" xml:space="preserve">
<style type="text/css">
	.st0{opacity:0.8;fill:url(#SVGID_1_);enable-background:new    ;}
	.st1{fill:#FFEACE;}
	.st2{font-family:'BaskervilleURW-Bol';}
	.st3{font-size:10px;}
	.st4{fill:#471B11;}
	.st5{fill:#5E261C;}
	.st6{fill:#E2D3C3;}
	.st7{opacity:0.57;fill:#230C09;enable-background:new    ;}
	.st8{fill:#61503C;}
	.st9{fill:#D3A971;}
	.st10{fill:#B28E62;}
	.st11{fill:#DDBA90;}
	.st12{fill:#663724;}
	.st13{fill:#512B20;}
	.st14{fill:#6B4740;}
	.st15{fill:#282828;}
	.st16{fill:#0C0C0C;}
	.st17{fill:#424242;}
	.st18{fill:#393F5B;}
	.st19{fill:#272C3D;}
	.st20{fill:#4B526D;}
	.st21{fill:#963333;}
	.st22{fill:#6B2A2A;}
	.st23{fill:#CCAE83;}
	.st24{fill:#A54E4E;}
	.st25{fill:none;}
	.st26{fill:#683E29;}
	.st27{fill:#563323;}
	.st28{fill:#7C4E3A;}
	.st29{fill:#B77E34;}
	.st30{fill:#CE9E65;}
	.st31{fill:#996930;}
	.st32{fill:#B2B2B2;}
	.st33{fill:#898989;}
	.st34{fill:#CCCCCC;}
</style>
<g>
	<g id="Layer_2">
		<g id="light">
			
				<linearGradient id="SVGID_1_" gradientUnits="userSpaceOnUse" x1="5059.521" y1="3181.9177" x2="4701.3013" y2="3181.9177" gradientTransform="matrix(0 -0.76 1.7 0 -5275.8604 3835.0298)">
				<stop  offset="0" style="stop-color:#FFD48D;stop-opacity:0.8"/>
				<stop  offset="1" style="stop-color:#FFD48D;stop-opacity:0"/>
			</linearGradient>
			<polygon class="st0" points="164.2,-2.3 228.8,265.5 38,265.5 101.9,-2.3 			"/>
		</g>
	</g>
	<text transform="matrix(1 0 0 1 45.4858 296.9855)" class="st1 st2 st3">Zet geluid aan voor een betere ervaring</text>
</g>
<g>
	<path class="st4" d="M125,142.4l-0.2,2l-0.1,1.3l-0.3,3.3l-0.2,1.7l-0.1,0.3l-1.4,13l-0.3,2.7l-0.5,4l-0.6,5.4l0,0l-0.2,2.2
		l-0.1,0.3l-0.2,2.2l-0.3,2.6l-0.1,0.8l-0.1,0.5l-0.1,0.9l0,0v0.2l-0.2,2.2l-0.4,3.5v0.1v0.1l-0.1,1l-0.1,0.9l0,0v0.1l-0.1,0.7v0.2
		l-0.1,0.7L119,198l0,0v0.3l-0.1,0.3l-0.2,2.2l0,0v0.2l-0.1,0.6v0.2v0.1v0.1l-0.1,0.3l-0.3,3v0.1v0.2v0.2v0.2l-0.2,1.6l-0.2,1.4v0.2
		l-0.1,0.6v0.1l-0.1,0.3l-0.4,3.5l-0.1,0.6l-0.2,1.6l-0.1,0.4l-0.1,1l-0.2,1.4l-0.1,0.3v0.2l-0.6,3.3l-0.1,0.3l-0.1,0.5l-0.1,0.6
		l-0.3,2l-0.1,0.3l-0.2,1.4l-0.2,2l-0.3,0.2l-0.1,1l-0.8,7.9l-0.5,4.7H107l0.7-4.8l0.1-0.3l0.7-4.7l0.3-2.2l0.1-0.5l0.2-1l0.1-0.5
		l0.2-1.3l0.3-2.1l0.3-2.3v-0.2l0.2-0.9l0.1-0.5l0.2-1.3l0.3-1.8l0.1-0.3l0.3-2.5l0.7-6.1l0.2-1.1l0.2-1.4v-0.1l0.3-2.3l0.1-0.2
		l0.2-1.8l0.1-0.3l0.1-0.3l0.1-0.2v-0.1l0,0l0.1-0.4v-0.1l0.1-1l0.1-0.5v-0.1l0.3-2.2l0.1-0.2l0.2-1.7l0.1-0.4v-0.2l0.1-0.3l0,0
		l0.1-0.6l0.1-1l0.1-0.5V193l0.1-0.9l0.3-2.4l0.2-1.3l0.1-0.8l0.2-1.7l0.1-1v-0.2v-0.1l0.3-2v-0.1l0.2-1.3l0.1-0.8l0.4-2.9v-0.1
		l0.3-2l3.3-24.3l0.1-0.3l0.2-1.6l0.8-6.1l0.9-0.7l0.5-0.4l1.2-0.9L125,142.4z"/>
	<path class="st4" d="M139.2,144.1l-0.1,1.7h-0.7h-0.2l-2.3-0.1l-7.7-0.2l-3.6,0.1l-2.5,0.1h-0.7h-0.5v-1.2h0.6h0.6l2.6-0.1l6.6-0.3
		L139.2,144.1L139.2,144.1z"/>
	<path class="st5" d="M122.3,141.9l-0.1,2.6l-0.1,1.2l-0.1,3.4l-0.1,1.6h-0.1l-1.1,0.3l0,0l0.1-0.3l0.2-1.6l0.4-3.4l0.2-1.2l0.3-2.2
		L122.3,141.9z"/>
	<path class="st4" d="M150.1,215.8l-3.4,0.1l-15.4,0.1l0,0h-0.5H129h-0.5h-2.2h-0.1h-0.1H126h-0.2l-3.8,0.1l0,0l-3.6,0.1h-1.3h-0.3
		h-1.3h-0.1h-0.6h-1h-0.7l0.1-2h0.7h0.5l0,0h0.3h0.7h1.3h0.4l2.9-0.1h2.1h0.9h0.7h0.6l4.1-0.1h1h1.2h0.1l3.1-0.1l0,0l12.6-0.1
		l3.6-0.1h0.1l0.1,0.7L150.1,215.8z"/>
	<path class="st5" d="M115.9,185.2l-1.2,33.7l-3.6,12v12.3h-0.7c-0.1-3,0.2-13.1,0.2-13.1l3.1-11.8L115.9,185.2z"/>
	<path class="st4" d="M156.1,241.4h-7.1l-2-16.6l-0.1-6.6l-0.3-2.4l-0.3-2l-0.6-4.3l-0.1-0.6l-0.2-1.6l-1.8-11.7l-0.2-1l-0.2-1.3
		l0,0v-0.1l-0.5-3.1l0,0l-0.1-0.3l0,0l-0.2-1l-0.1-0.8v-0.1v-0.1l-0.1-0.2l-0.3-2l0,0v-0.1l0,0l-0.1-0.5v-0.1l0,0l-0.1-0.7l-0.1-0.3
		V184l-0.1-0.5l-0.2-1l-0.1-0.7l-0.1-0.2l-0.1-0.8l-0.2-1.2l-0.1-0.5l-0.1-0.7l0,0l-0.2-1v-0.1l-0.1-0.3v-0.1l-0.1-0.7l-0.2-1
		l-0.1-0.3l-0.1-0.3l-0.1-0.3l-0.1-0.2V174l-0.3-2.2l-0.9-5.6l-2.4-15.3v-0.1l-0.2-1.5l-0.5-3.5l-0.2-1.6l-0.3-1.8l2.1-1.3l0.5,0.3
		l0.5,0.3l1,0.6l1.2,7.1l0.2,1.4l0,0l5,28.6v0.1l0.1,0.5l0.1,0.7l1.5,8.6v0.1l0.1,0.7l3.1,17.6l0.3,1.6l0.1,0.5l1.8,10.5l0.2,9.6
		L156.1,241.4z"/>
	<path class="st6" d="M154.1,209h-44.6l2.5-58.3h35.7L154.1,209z"/>
	<path class="st4" d="M153.2,183.4l-4.5-33.9l-7.9-0.2l-4.4-0.1l-11.5-0.3h-0.7l-2.3,0.1l-1,0.1l-0.9,0.1l-8.2,0.3h-0.8h-0.3
		l-1.6,23.3l-0.4,5.8v7.8v2.8v21.1l2.5-0.1h0.6h1.2h1.2h0.7h0.8h1.6h0.5l2-0.1h0.2l3.9-0.1h0.9h0.7l2.6-0.1h0.5h0.1h0.9h1.6l7.3-0.1
		h1.8l5.5-0.1h1.8l3.6-0.1h1.6h0.5h1.4L153.2,183.4z M146.8,150.6L146.8,150.6l2.8,32l0.1,0.6l2.1,24.3h-41v-1.3l0.1-2.5v-0.2v-0.1
		v-1v-0.2v-0.6v-0.1v-0.5V200l0,0l0.1-1.7v-1.4v-1.1v-0.1v-0.4v-0.7v-0.2v-0.3v-0.2v-0.4v-1.1v-0.2v-1.1v-0.3l0.1-1.2v-0.6v-0.4V188
		v-0.7l0.1-1.6v-1.4l0.1-0.9l0,0l0.1-1.6l0.1-1.9v-0.2l0.1-2.8v-1l0.1-3.5l1.9-21.2l6.6-0.1h0.9l3.3-0.1l12.7-0.2l4.4-0.1h0.9
		L146.8,150.6z"/>
	<path class="st5" d="M110.9,158.2l-0.2,18.5l0.2,3.9l-0.7-3.9l0.2-18.4l0.9-8.9h0.7L110.9,158.2z"/>
	<path class="st7" d="M147.6,209.6h-1.8l-5.5,0.1h-1.8l-7.3,0.1l0,0h-1.6h-0.9h-0.1h-0.5l-2.6,0.1h-0.7l0,0h-0.9l-3.9,0.1h-0.2
		l-2,0.1h-0.3h-0.2h-1.6H115h-0.7h-1.2h-1.2h-0.6l-2.5,0.1v-0.6v-2.9v-0.3v-3.5v-0.4v-0.9v-0.6v-0.3v-2.1v-2.6v-0.3V195v-1.1v-0.5
		v-0.2v-0.9V191v-0.1v-1.7v-2.8l0,0V185v-6.4l0.4-5.8l1.1,1.6l0.4,0.6l0.2,0.3l0,0l0.3,0.5v1l-0.1,2.8v0.2l-0.1,1.9l-0.1,1.6l0,0
		v0.9v1.4l-0.1,1.6v0.7v0.5v0.4v0.6v1.2v0.3v1.1v0.2v1.1v0.4v0.2v0.3v0.2l0,0v0.7v0.4v0.1v1.1v1.4L111,200l0,0v0.9v0.5v0.1v0.7v0.1
		v0.1v1v0.1v0.2l-0.1,2.5v1.3h34.9l1.3,1.6L147.6,209.6z"/>
	<g>
		<path class="st5" d="M153.3,209.5h-0.5l-0.1-0.5l-1.8-28.3l0,0l-0.9-14l-0.3-4.3l-1.9-11.7l0.9,2.9l1.4,8.8l0.3,3.5l1.6,24.4l0,0
			l1.2,18.8L153.3,209.5z"/>
		<path class="st5" d="M153.2,241.4h-0.9l-1.8-10.3v-12.1l-0.5-4.4l-0.1-0.7l-0.3-2.4l1.3,6.7l0.3,13.4L153.2,241.4z"/>
		<path class="st5" d="M138.5,141.6l-0.1,2.5l-0.1,1.7l-0.1,2.8l-0.1-2.8l-0.1-1.7l-0.1-2.8L138.5,141.6z"/>
	</g>
	<path class="st8" d="M130.2,160.3c-5.4,0-9.7,4.3-9.7,9.7v4.5c0,0.9,0.7,1.7,1.7,1.7h0.6v-5.7h-0.6c-0.2,0-0.4,0.1-0.6,0.1V170
		c0.1-4.7,4-8.5,8.8-8.4c4.6,0.1,8.3,3.8,8.4,8.4v0.7c-0.2-0.1-0.3-0.1-0.6-0.1h-0.6v5.7h0.6c0.9,0,1.7-0.7,1.7-1.7V170
		C139.9,164.7,135.5,160.3,130.2,160.3z"/>
	<path class="st8" d="M125.6,169.5H125c-0.6,0-1.2,0.5-1.2,1.2l0,0v5.7c0,0.6,0.5,1.2,1.2,1.2l0,0h0.6c0.3,0,0.6-0.2,0.6-0.6v-6.9
		C126.1,169.7,125.9,169.5,125.6,169.5L125.6,169.5z"/>
	<path class="st8" d="M135.4,169.5h-0.6c-0.3,0-0.6,0.2-0.6,0.6v6.9c0,0.3,0.2,0.6,0.6,0.6h0.6c0.6,0,1.2-0.5,1.2-1.2v-5.7
		C136.5,170,136,169.5,135.4,169.5z"/>
	<path class="st9" d="M141.8,186.3v0.4l0,0l-0.1,6.3v0.7v1.4v0.1v0.1v0.1v0.8v1l-0.2,9.3v0.1v0.1h-0.1h-0.1l-0.5-0.1l-0.4-0.1l0,0
		l-3.9-0.4l0.3-2.3l0.6-4.8l0.1-0.5l0.1-0.6l0.3-3.1v-0.2v-0.1v-0.1v-0.1l0.1-1l0.2-1.4l0,0l0.6-5.1l0.1-0.5L141.8,186.3z"/>
	<path class="st10" d="M139.4,186.7v7l-0.7-0.2l-0.9-0.2l0.2-1.4l0,0l0.6-5.1l0.1-0.5l0.6,0.3L139.4,186.7z"/>
	<path class="st11" d="M141.8,186.3v0.4l-0.1,6.3v0.7v1.4v0.1v0.1v0.1v0.8v0.9l-0.1,9.4l-0.1,0.1h-0.1h-0.1l-0.6,0.2v-0.3v-0.1
		l0.1-8v-2.6v-0.6l0,0V195v-0.4v-1.8l0.1-6.2l0,0l0,0v-0.1l0.1-0.1l0.2-0.3L141.8,186.3z"/>
	<path class="st12" d="M112,209L112,209l-0.2,0.3l-0.5,0.9l-1.8,3.2l-1.2,2.2l-0.7,1.2l-1,1.9l-2.8-0.3l-1.1-0.1l-1.4-0.2l-0.3-0.1
		h-0.2l-5.6-0.7l-2.5-0.3l-0.6-0.7l-3.2-3.7l2.5-5.1l1.3-2.6l3.3-1.3l5.6-2.2l1.7,1.3l1.4,1.1l0.1,0.1l0.6,0.5l0.1,0.1l1.8,1.4
		l0.3,0.2l1,0.8l0.1,0.1l0.7,0.5l0.1,0.1l2.2,1.6L112,209z"/>
	<path class="st13" d="M101.3,217.9l-0.3-0.1h-0.2l-5.6-0.7l-2.5-0.3l-0.6-0.7l-3.2-3.7l2.5-5.1l1.7,1.2v3.9l1.4,0.9l6.2,3.8
		l0.3,0.5L101.3,217.9z"/>
	<path class="st14" d="M107.4,205.5l-1.2,0.1l-2.5,0.1h-0.1l-3.3-0.5l-0.4-0.1l-0.2-0.1h-0.1l-0.6-0.1h-0.1l-0.3-0.1l-1.5-0.2
		l-0.1-0.2l-0.2-0.3l-0.6-0.7l5.6-2.2l1.7,1.3l1.4,1.1l0.1,0.1l0.6,0.5l0.1,0.1L107.4,205.5z"/>
	<path class="st13" d="M95.9,207.6l-1.2,1.2l-1.1,0.1l-0.7-1v-0.4l0.4-1.2l0.6-0.3l1.4,0.1L95.9,207.6z"/>
	<path class="st15" d="M95.9,207.6l-1.1,1.1l-1.1-0.2l-0.3-1l-0.1-0.2l0.6-1.2L94,206h1.4L95.9,207.6z"/>
	<path class="st16" d="M95.5,208.1l-0.6,0.6l-1.1-0.2l-0.3-1l0.5,0.1l0.4,0.5l0.5,0.1L95.5,208.1z"/>
	<path class="st17" d="M95.8,207.1l-0.3-0.1l-0.3-0.6l-0.9-0.1l-0.3-0.2l0.1-0.2h1.4L95.8,207.1z"/>
	<path class="st13" d="M99,205.5l-1.2,1.2l-1.1,0.1l-0.7-1v-0.4l0.4-1.2l0.6-0.3l1.4,0.1L99,205.5z"/>
	<path class="st18" d="M99,205.5l-1.1,1.1l-1.1-0.2l-0.3-1l-0.1-0.2l0.6-1.2l0.1-0.2h1.4L99,205.5z"/>
	<path class="st19" d="M98.7,205.8l-0.7,0.8l-1.1-0.2l-0.3-1l0.5,0.1l0.4,0.3l0.8,0.1L98.7,205.8z"/>
	<path class="st20" d="M98.9,205.1l-0.3-0.1l-0.3-0.6l-0.9-0.1l-0.3-0.2l0.1-0.2h1.4L98.9,205.1z"/>
	<path class="st21" d="M109,211.7l-0.6,0.7l-0.8,1l-2.1,2.6l-0.6,0.7l-1.1,1.4l0,0l-0.7,0.9l-1,1.3H102l-0.4,0.1l0,0l-5.4,0.8
		l-4.5-4.1l0.1-0.3l0.3-0.7l0.7-2l1.7-0.9l1.3-0.6l3.3-6.8l0.4-0.8l0.5-1l0.6-0.1l4.1-0.4l0.5-0.1h0.1l0.2,0.6l0.1,0.1l0.6,1.4
		l1.4,3.1l0.9,1.9L109,211.7z"/>
	<path class="st22" d="M102,220.4l-0.4,0.1l0,0l-5.4,0.8l-4.5-4.1l0.1-0.3l0.9-0.1l1.7-0.2l0.7,0.5l2.7,1.7h3.2L102,220.4z"/>
	<path class="st9" d="M123.3,191.7v1.9l-0.2,0.4l-0.9,1.4l-0.2,0.3l-0.3,0.6l-0.5,0.8l-1.1,1.8l-0.2,0.3v2.2l-0.7,0.3l-0.7,0.3h-0.1
		l-2.1,1v0.5l-0.6-0.3l-0.2,0.1l-0.2,0.1l-0.2,0.1V203l-0.3-0.2l-0.3-0.1l-0.6-0.3l-0.3-0.1l-0.5-0.2l-0.2-0.1l-1.3-0.6v-2.2l-0.6-1
		l-0.9-1.4l-0.7-1.2l-0.1-0.2l-0.3-0.5l-0.7-1.2l-0.1-0.1v-1.9l0.8-0.7l0.1-0.1l0.3-0.3l0.1-0.1l0.1-0.2l0.1-0.5l0.1-0.5l0.6-2.6
		l0.1-0.5l0.2-0.2l0.6-0.5l1.5-1.2h6.1l1.4,1.2l0.6,0.5l0.3,0.2l0.7,3.1l0.1,0.5l0.1,0.5l0.1,0.2l0.1,0.1l0,0L123.3,191.7z"/>
	<path class="st23" d="M113.8,198h4.5v7.7h-4.5V198z"/>
	<path class="st11" d="M123.3,191.7v1.9l-0.2,0.4l-0.5-1.4l-0.1-0.3l-1-0.7l-0.3-0.2l0.9-1l0.1,0.2l0.1,0.1l0,0L123.3,191.7z"/>
	<path class="st10" d="M109.3,191.7l-0.5,0.6l-0.2,0.3l-0.1,0.2l-0.3,1l-0.1-0.1v-1.9l0.8-0.7l0.1-0.1l0.3-0.3l0.1-0.1l0.1-0.2v0.3
		L109.3,191.7z"/>
	<path class="st18" d="M124.1,204.2l-4.5,3.3l-2.2,1.6l-0.1,0.1l-2.1-1.8l-4.1-3.6L110,203l-0.6-0.5l-0.1-0.1l0.4-0.7l0.2-0.4
		l0.1-0.2l0.2-0.3l0.4-0.7l0.8,0.2l2.3,0.5l1,0.2h3.1l0.5-0.2l0.6-0.2l0.9-0.3l0.7-0.2l0,0l0.6,0.7l1.3,1.6l0.9,1l0.5,0.6
		L124.1,204.2z"/>
	<path class="st20" d="M123.3,203.3l-0.8,0.3l-0.6,0.2l-0.3-0.5l-0.8-1.4l-0.4-0.7l-0.6-0.2l-0.1-0.1l-0.3-0.1l-1.1-0.1h-0.5l0,0
		l0.5-0.2l1.5-0.5l0.7-0.2l0,0l0.6,0.7l1.3,1.6L123.3,203.3z"/>
	<path class="st18" d="M129.7,204.1l-0.7,2l-0.1,0.2l-0.1,0.3v0.5v0.3l-0.1,1.6v0.9l-0.1,1.5l-0.1,2.7v0.6v0.5v1v0.1v0.2v0.6v0.7
		v0.5l0,0l-0.1,1.7l-0.1,1.3v1v0.2l-0.5,0.7l-0.7,1.1l0,0l-0.4,0.6l-0.7,1.1l-0.5,0.6v3.2l0.3,1l0,0l0.4,1.2l0.5,1.3v19.9h-4.3
		l-0.7-0.2l-1.2-0.4l-1.7-0.6h-5.2l-0.1,0.1l-1.2,0.6l-0.9,0.5h-6.1v-19.9l0.9-2.5l0.3-1v-3.2l-0.5-0.6l0,0l-1.5-2.2l-0.8-1.2v-0.6
		l-0.1-1.4l-0.1-1.6v-0.6l0,0l-0.1-2v-0.9l0,0l-0.1-5.1v-0.5l-0.1-3.9l0.1-0.1l1.8-1.6l0.1-0.1l0.9-0.9l0.6-0.5l0.6-0.1l1.2-0.1h0.1
		l0.5-0.1l0.4-0.1l0,0l0.6-0.1l0,0l0.4-0.1h0.2l1.2-0.1l0.5-0.1h0.1h0.2l0.8-0.1l0.3-0.1h0.3l0.4-0.1l0.5-0.1l0.7-0.1l1.5-0.1
		l0.5,0.1l0.3,0.1l0,0l0.7,0.1l1.7,0.2l1.7,0.2l2.8,0.3L129.7,204.1z"/>
	<path class="st19" d="M118.3,205.7l-4.5-2.1l-0.2-0.1h-0.1l-2.3-1.1l-0.2-0.1l-1.3-0.6l0.2-0.4l0.1-0.2l0.2-0.3l0.4-0.7l0.8,0.2
		l2.3,0.5l1,0.2h0.5l0.1,0.1l0.7,0.7l0.1,0.1v0.1l-0.2,1l0.3,0.6l0.4,0.7l1,0.9L118.3,205.7z"/>
	<path class="st12" d="M121.7,250.2v13.4l1.2,1.4h4.7l1.2-1.9v-13.8L121.7,250.2z"/>
	<path class="st12" d="M120.5,249.3v13.8l-1.2,1.9h-4.7l-1.2-1.4v-13.4L120.5,249.3z"/>
	<path class="st13" d="M116.8,265h-2.2l-1.2-1.4v-6.9l1.6,1.2l0.4,3.2L116.8,265z"/>
	<path class="st13" d="M125.1,265h-2.2l-1.2-1.4v-6.9l1.6,1.2l0.4,3.2L125.1,265z"/>
	<path class="st19" d="M106.7,228.1v-1.6l-2.8-4.1l-0.1-3.6l2.1,0.9l1.2,2.8l3.5,1.2l2.4,3.9L106.7,228.1z"/>
	<path class="st20" d="M126.8,233.3v5.5l-1.6-3.8l-2.4-2.4l-0.4-3.6l3.2-0.8l0,0v1.4l0.3,1L126.8,233.3z"/>
	<path class="st19" d="M125.6,229.6L125.6,229.6l-18.9-0.3v0.5l-0.3,1h19.6L125.6,229.6z"/>
	<path class="st12" d="M126.4,226.3v3l-0.4,0.4h-19.6l-0.4-0.4v-3l0.4-0.4H126L126.4,226.3z"/>
	<path class="st19" d="M128.9,218l-0.3,0.3l-0.1,1.7l-0.1,1.3v1v0.2l-0.5,0.7l-0.7,1.1l0,0l-0.4,0.6l-2.2-1.7l-1-0.7l-1.6-1.2
		l-1.6-1.2l-3.8-2.9l-0.1-0.1l-0.3-0.2l-0.9-0.7l0,0l-0.2-0.2l-0.3-0.8l-0.2-0.5l-0.1-0.4l-0.5-1.3l-0.1-0.1l-0.5-1.5l-0.4-1.2
		l-0.4-1.1l-0.5-1.4l-0.1-0.1l-0.1-0.2l-1.2-3.5l-0.1-0.3v-0.1l-0.3-1l0,0h0.4h0.5l1.3,0.1h0.2h0.2h0.6h0.3l0.3,0.2l0.3,0.2h0.1
		l0.3,0.2l0.3,0.2l0.2,0.1l0.2,0.1l2.1,1.4l0,0l0.3,0.2l0.3,0.2l1,0.6l0.2,1.3l0,0l0.2,1.6l0.2,1l0.1,0.9l3.9,3.3l0.6,0.5l1.4,1.2
		l0.2,0.1l0,0l0.1,0.1l0.2,0.1l1.2,0.9l0.9,0.7L128.9,218L128.9,218z"/>
	<path class="st19" d="M123.3,253.2h-0.7l-3.7-1.2h-5.2l-2.1,1.2h-6v-16.1l2.4,1.5l0.8,3.9l2.8,2.8l3.9,1.6l1.2,2.8l3.9,0.8
		L123.3,253.2z"/>
	<path class="st21" d="M134.8,265l-1.8,0.6l-3.1,3.6l-0.5,0.1l-7.9-0.2l-4.9-3.6l-5.7,2l-6.2-1.1l-7.8-4.5l3.3-19.5l2.1-7.5l0.7-2.5
		l0.1-1.8l0.3-4.6l-1.6-4.5l0,0l-0.3-0.8l-0.4-1.1l-0.1-0.1l-0.1-0.5l-0.1-0.2l-0.2-0.7l-0.2-0.7l-1.6-5.9l0.7-5.8l0.1-0.3l0.1-0.7
		l0.7-0.5l1.8-1.2l0.9-0.3l2.4-0.9l1.9-0.5l0.7-0.2l0.4,0.1l0.2,0.1l0.8,0.2l0,0l0.1,0.1l0.9,0.2l1.1,0.3l0.3,0.3l0.3,0.3l0.2,0.2
		l0.2,0.2l0.3,0.3l0.4,0.3l0.2,0.2l0.2,0.2l0.3,0.3l0.3,0.3l0.2,0.2l0.3,0.3h0.1l0.6,0.6l0,0l0.3,0.3l0.5,1.5l0.5,1.4l0.1,0.1v0.1
		l0.2,0.6l0.1,0.4l0.7,2l1.9,2.1l0.4,0.5l1.3,1.5l0,0l0.1,0.1l0.8,0.9l1.2,1.3l4.4,1.5l1,0.3l0.1,0.9l0.1,2l0.2,3.8l-0.9,2.1
		l-0.6,1.4l-0.7,1.9l1.4,6.4l2.8,6.9L134.8,265z"/>
	<path class="st22" d="M129.4,269.2l-7.9-0.2l-5.8,0.6l-4.8-2.3l-6.2-1.1l-7.8-4.4l3.3-19.5l2.1-7.5l3.2,6l0.7,1.3l0.2,3.2l0.4,5.1
		l0.1,1.2l0.5,1.6l0,0l1.2,3.6l4.7,0.7l1.3,0.2l2.2,0.3l3.6,4.9l0,0l1.4,2L129.4,269.2z"/>
	<path class="st24" d="M111.6,217.4l4.1,9.2l0.7-2.6L111.6,217.4z"/>
	<path class="st24" d="M106.6,218.5l-2.3-5.1v-3l1.1-2.6l-2.6,2.5l0.3,4l2.2,3L106.6,218.5z"/>
	<path class="st25" d="M125.5,260.9l-9.6-3.9"/>
	<path class="st22" d="M106.5,227.7l-0.6,0.5l-2.8,2.2l0.3-4.6l-1.6-4.5l0,0l-0.3-0.8l-0.4-1.2l-0.2-0.5v-0.2l-0.1-0.7v-0.3
		l-0.1-2.4l1.2,0.8l0.7,2.1l0.3,1l0.1,0.1l0.8,1.3l0,0l2,3.3l0.3,2.1l0,0v0.1L106.5,227.7z"/>
	<path class="st24" d="M134.8,265l-1.8,0.6l-3.3-16.1l-2.9-3.3l-0.1-0.1l-0.3-7.7l0.1-0.3l0.3-1.4l0.9-4.3l1.4,6.4l2.8,6.9
		L134.8,265z"/>
	<path class="st20" d="M129.7,204.1l-0.8,2l-0.6,0.1l-0.6,0.1l0,0l0,0l-2.6-2l-1.1-0.2l-1.3-0.3l-0.9-0.2l-0.8-1.4l1.7,0.2l2.8,0.3
		L129.7,204.1z"/>
	<path class="st24" d="M129.9,227l-0.9,2.1l-1.8-4.8l0,0l-0.1-0.2l-2-0.9l-1.5-0.7l-2.5-1.2l0,0l-0.6-1.2l-1.6-2.9l-0.5-1v-0.1
		l-0.2-0.5l-0.6-1l-0.2-0.5l-0.3-0.6l-0.3-0.5l0,0l-0.9-2.9l-0.3-1l-0.4-1.3l-0.1-0.3l-0.1-0.2l-0.1-0.4l-0.3-0.3l-0.2-0.2l-0.4-0.3
		l-1.3-1.1l-0.2-0.1l-1.6-1.4l0,0l-0.5-0.5H110h-0.2h-0.1l-0.8-0.1h-0.1L108,203l-0.2,0.1l-1.2,0.3l-1.3,0.3l-0.4,0.1l-3.5,0.8
		l-1.2,0.7l-0.5,0.3l-0.6,0.4h-0.1l0.4-0.9l0.6-1.3l2.4-1l0.9-0.3l2.4-0.9l1.9-1.3l0.2-0.1l1,0.4l0.2,0.1l0.8,0.3l0,0l0.2,0.1
		l0.7,0.3l1.1,0.4l0.3,0.3l0.3,0.3l0.2,0.2l0.2,0.2l0.3,0.3H113h0.1l0.3,0.3l0.2,0.2l0.2,0.2l0.3,0.3l0.3,0.3l0.6,0.5l0,0h0.1
		l0.6,0.6l0,0l0.3,0.3l0.5,1.5l0.5,1.4l0.1,0.1v0.1l0.2,0.6l0.1,0.4l0.7,2l1.9,2.1l0.4,0.5l1.3,1.5l0,0l0.1,0.1l0.8,0.9l1.2,1.3
		l4.4,1.5l1,0.3l0.1,0.9l0.1,2L129.9,227z"/>
	<path class="st26" d="M122.6,192.7l-0.7,1.8l0.1,1.3l0.1,1l0.1,0.5l-0.6,0.6l-0.4,0.5l0.5,2.2l-0.4,0.1l-0.2,0.1l-1.2,0.3l-0.1,0.1
		l-1.3,0.3h-0.1l-0.3,0.1l-2,0.2H116l-0.5,0.1l-0.5,0.1l-0.9,0.1l-0.2-0.1l-0.7-0.2l-1.6-0.5l-0.6-0.2l-0.6-0.2l-0.4-0.1l-0.3-0.1
		l0.3-1.2l0.3-1L110,198l-0.8-1l0.1-1.3v-0.1l0.1-0.8l-0.5-1.4l0,0l-0.2-0.7l-0.1-0.4l0.3-1.2l0.1-0.1l0.1-0.4l0.2-0.6l0.1-0.1
		l0.2-0.2l0.9-0.8l0.1-0.1l0.6-0.6l0.2-0.2l0.3-0.1l3.3-0.3l0.9-0.1h0.1l2.5-0.2l1.2,0.7l0.4,0.3l1.7,1.1l0.2,0.2l0.1,0.1l0.1,0.3
		l0.2,0.9l0.2,0.7l0.3,1.1L122.6,192.7z"/>
	<path class="st27" d="M115.8,201.8l-1.9,0.1l-0.2-0.1l-2.3-0.7l-1.2-0.4l-0.7-0.2l0.7-2.2l-1.1-1.4l0.1-1.3v-0.1l2.4,1.8l0.4,2.2
		l1.8,0.7l1.5,0.6l0,0l0.1,0.1L115.8,201.8z"/>
	<path class="st28" d="M122.6,192.7l-0.7,1.8l0.1,1.3l0.1,1l0.1,0.5l-0.6,0.6l-0.3-0.8l-0.5-1.1l-0.7-1.6l1.1-1.6l-0.1-0.8l-0.1-1.1
		l-0.2-1.2l0.9-0.6l0,0l0.2,0.2l0.1,0.1l0.1,0.3l0.2,0.9l0.2,0.7l0.3,1.1L122.6,192.7z"/>
	<path class="st27" d="M122.3,191l-0.8,0.6l-0.6,0.5l-1,0.7l-6.9,0.1l-2.6-1l-1.2-1.2l-0.3-0.3l0.2-0.6l0.1-0.1l0.2-0.2l1-0.9
		l1.9-0.1l7.1-0.5l2.1,1.4l0.2,0.2l0.1,0.1l0.1,0.3l0.2,0.9L122.3,191z"/>
	<path class="st21" d="M123.4,185.5l-0.6,2.8l-0.2,0.9l-0.6,0.7l-0.1,0.1l-0.6,0.7l-0.5,0.3l-1.2,0.7l-0.1,0.1l-0.2,0.1h-6.5
		l-1.8-0.9l-0.7-0.3l-0.6-0.3l-0.3-0.5l-0.1-0.2l-0.4-0.6l-0.1-0.2l-0.2-2.8l-0.1-1l0.4-0.2l1.7-1.2l0.6-0.4l0.6-0.4l0.7-0.5h6.6
		l1.3,0.9L123.4,185.5z"/>
	<path class="st22" d="M119.6,191.8l-0.1,0.1l-0.2,0.1h-6.5l-1.8-0.9l-0.7-0.3l-0.6-0.3l-0.3-0.5l-0.1-0.2l-0.4-0.6l-0.1-0.2
		l-0.2-2.8l0.3,0.1l0,0l1.3,0.5l0.3,0.1l0.6,0.3l0.2,0.1l0.3,0.3l0.7,0.7l0.8,0.8l1.4,0.3l1,0.2l0.1,0.1l2.2,0.5l1.6,1.3
		L119.6,191.8z"/>
	<path class="st24" d="M123.4,185.5l-0.6,2.8l-1.3-1.8l-0.7-0.3l-3-1.2l-3.1-0.5l-1.3-0.2l-1.7-1.3l0.7-0.5h6.6L123.4,185.5z"/>
	<path class="st28" d="M121.1,198.4l0.5,2.2l-0.4,0.1l-0.2,0.1l-0.4-0.7l-0.6-1l-0.3-0.5l0.9-2.4l0.2-0.5l1.3,1.3l0.1,0.5l-0.6,0.6
		L121.1,198.4z"/>
	<path class="st10" d="M139.1,181.3l-1,1.2v1.4l2.6,1l1-3.1l-1.9-0.5H139.1z"/>
	<path class="st9" d="M143.1,182.7l-0.6,1.6l-0.1,0.3l-0.1,0.3l-0.2,0.5l-0.5,1.3l0,0l-0.9,0.1l0,0h-0.1l-1.3,0.1h-0.1l0,0l-0.8,0.1
		l-1.2-1.4l0,0l0,0l0.2-0.4l0.1-0.3l0.1-0.2l0.4-0.6l0.1-0.1v-0.1l1.4,0.4l0.8,0.2l0.1-0.2l0.2-0.6l0.1-0.3l0.2-0.4l0.2-0.5
		l-0.8-0.8l0.1-0.1l0.2-0.5l0.2-0.6l1.9,1.3L143.1,182.7z"/>
	<path class="st11" d="M143.1,182.7l-0.6,1.6l-0.1,0.3l-0.1,0.3l-0.2,0.5l-0.5,1.3l0,0l0,0l-0.9,0.1l0,0l0,0l0,0l0.1-0.1l0.1-0.3
		l0.5-1.4l0.2-0.5l0.1-0.3l0.1-0.3l0.2-0.5l-0.3-1.5l-1.2-0.8l0.2-0.6l1.9,1.3L143.1,182.7z"/>
	<path class="st29" d="M134,177.1l-0.1,0.2l-0.1,0.3l-0.3,0.1l-0.1,0.1h-0.1h-0.1l-0.2-0.1l-0.6-0.2l-1.1-1.1l-0.1-0.1l-0.5-1.3
		l-0.1-0.2l-0.1-0.1l1.7,0.5l1.3,1l0.2,0.5l0.1,0.1v0.1L134,177.1z"/>
	<path class="st4" d="M148.8,190.1l-0.3,0.3l-6.4-5l-0.6-0.5l-0.6-0.5l-0.4-0.3l-2-1.6l-0.3-0.2l0,0l-0.1-0.1L138,182l-3.9-3.9
		l-0.3-0.3l0.2-0.2l0.3-0.4l0.1,0.1l0.2,0.2l4.5,3.5l0.1,0.1l0.2,0.2l0.3,0.3l1.3,1.3l0.3,0.2l0.6,0.6l0.6,0.6l2.6,2.5l2.7,2.5
		L148.8,190.1z"/>
	<path class="st5" d="M148,189.3l-5.6-4.4l-0.6-0.5l-0.5-0.4l-0.2-0.1l-0.3-0.3l-2-1.8l-2.8-2.6l2.9,2.4l0.1,0.1l0,0l2,1.7l0.3,0.2
		l0.6,0.5l0,0l0.6,0.5l2.8,2.2L148,189.3z"/>
	<path class="st30" d="M133.9,176.8L133.9,176.8l-0.3,0.2l0,0l-0.5-0.4l-1-1.2l-1.4-0.6l0,0v-0.1l1.7,0.5l1.3,1L133.9,176.8
		L133.9,176.8z"/>
	<path class="st31" d="M133.6,177.2l-0.3,0.5l-0.2-0.1l-0.6-0.2l-1.1-1.1l-0.1-0.1l0.7,0.3l0.7,0.6l0.6,0.1H133.6z"/>
	<path class="st32" d="M134.6,177.6L134.6,177.6L134.6,177.6l-0.3,0.3l-0.2,0.2H134l-0.5-0.2l-0.3-0.2l-0.1-0.1l-0.1-0.1l0.3-0.4
		l0.2-0.2l0,0l0.2-0.3l0.1,0.1l0,0l0.4,0.3L134.6,177.6z"/>
	<path class="st33" d="M134.3,177.9l-0.2,0.2H134l-0.5-0.2l-0.3-0.2l0.2-0.1l0.2-0.1l0,0l0.3,0.1l0.2,0.1L134.3,177.9z"/>
	<path class="st34" d="M134.6,177.6L134.6,177.6L134.6,177.6l-0.2-0.2l-0.1-0.1l-0.3-0.1h-0.1l-0.3-0.2l0,0l0.2-0.3l0.1,0.1l0,0
		l0.4,0.3L134.6,177.6z"/>
	<path class="st9" d="M140.9,180.4l-0.2,0.6l-0.2,0.5l-0.1,0.1h-1.7v-0.1l-0.1-0.3l0.4-0.2l0.5-0.2L140.9,180.4z"/>
	<path class="st11" d="M140.9,180.4l-0.2,0.6l-1.1-0.1L140.9,180.4z"/>
	<path class="st9" d="M139.8,185.8l-0.7,0.1h-0.2l-0.7,0.1l-0.7-0.6l-0.1-0.1l0,0l-0.1-0.2l-0.2-0.9l-0.2-0.7l0.2-0.3l0.7-1.1
		l0.1-0.1l0.1-0.1l0.3,0.1l0.1,0.1l0.1,0.1l-0.1,0.5l-0.1,0.7l1.2,0.8l0,0v0.1v0.2v0.1L139.8,185.8z"/>
	<path class="st10" d="M139.3,186.8h-0.8l-1.2-1.4l-0.1-0.6l1.5,0.9L139.3,186.8z"/>
	<path class="st11" d="M140.5,184.3l-0.3,0.1l-1.3-0.1l-0.7-0.5l-0.3-0.6l0.5-1.2l0.2,0.1l-0.1,1.2l1.2,0.8L140.5,184.3z"/>
	<path class="st10" d="M137.9,185.5l-0.5-0.1l-0.1-0.1l0,0l-0.1-0.2l-0.2-0.9l-0.2-0.7l0.2-0.3l0.5,1.5l0.2,0.5L137.9,185.5z"/>
	<path class="st18" d="M143,196.9l-1,3.2l0.3,6.7v0.3l-0.3,0.4l-0.2,0.2l-1,1.3l-0.5,0.7l-1,1.2l-0.3,0.4l-2.4,1.1l-1.7,0.8l-1,0.8
		l-0.8,0.6l-1.8,1.4l-0.2,0.2l-1,0.8l-1.2,1l-0.3,0.3l-0.3,0.2l0,0l-1.2-1.4l-0.7-0.9l-0.1-0.1l-0.1-0.1l0,0l-0.1-0.2l-1-1.2
		l-0.5-0.5l-1-1.2l2.1-3l0.6-0.9l1.1-1.6l0.9-1.3l0,0l0.1-0.1l1-1.4l0.4-0.6l4.7-1l0.6-0.2l0.1-0.3l1-4l0.2-0.9l-0.9-1.4l1.6-2
		l0.1-0.1l0,0l0.6,0.1h0.1l2.7,0.7l0.3,0.1l0.5,0.1l0.3,0.1h0.1l0.9,0.2l0.7,0.4L143,196.9z"/>
	<path class="st19" d="M137.8,194.4l-0.1,0.1l0,0l-0.1,0.1l-0.1,0.2l-0.7,1.4l0.5,1.7l0.1,0.5l-0.2,0.5l-2,3.7l-0.1,0.2l0.1-0.3l1-4
		l0.2-0.9l-0.9-1.4l1.7-2.1l0,0L137.8,194.4L137.8,194.4z"/>
	<path class="st19" d="M139.3,210.9l-0.3,0.4l-2.4,1.1l-1.7,0.8l-1,0.8l-2.5,2l-2.5,2l-0.3,0.3l-0.3,0.2l-0.5,0.4l-4.1-1.8l2.4-0.9
		l0.1-0.1h0.1l2.4-0.9l1.7-0.7l0.5-0.3l3.9-2.7L139.3,210.9z"/>
	<path class="st20" d="M143,196.9l-1,3.2l0.3,6.7v0.3l-1.4,1.5l-0.2-0.6l-0.5-1.2v-0.3l0.2-4.4l-0.4-2.6l0.7-1.1l0.8-1.3l0.1-0.1
		l0.4-0.7l0.5-0.7l0.7,0.4L143,196.9z"/>
	<path class="st19" d="M142.4,206.8v0.3l-0.3,0.4l-0.2,0.2l-1,1.3l-0.5,0.7l-1,1.2l-0.3,0.4l-2.4,1.1l-2-1.1l3.2-1.1l0.7-0.5
		l0.9-0.7l1.3-1l0.7-0.5L142.4,206.8L142.4,206.8z"/>
	<path class="st19" d="M137.4,198.4l-0.7,5.2l-0.1,0.1l-1,0.6l-1.9,1.2l-0.4,0.2l-4.3,0.3l-0.7,0.1l-0.6,0.1l0,0l0,0l0,0l1.7-1.5
		l0.4-0.6l4.3-0.9l0.4-0.1l0.6-0.2l0.1-0.3l1-4l1.1-0.2L137.4,198.4z"/>
	<path class="st20" d="M135.7,203.4l-0.1,1l-1.9,1.2l-0.4,0.2L129,206l-0.7,0.1l-0.6,0.1l0,0l0,0l0.1-1.6l2-0.5l4.3-0.9l0.4-0.1
		l0.6-0.2l0.1-0.3l0.1,0.1L135.7,203.4z"/>
	<path class="st12" d="M144.2,195.2l-0.3,0.3l-0.6,0.6l-0.7-0.4l-0.3-0.2H142l-0.5-0.1h-0.1l-0.8-0.2l-0.3-0.1l-2.6-0.5l-0.1-0.1
		h-0.1l-0.5-0.2l-0.2-2l1-0.4l0,0l1.2,0.5l0.3,0.1l1.4,0.4h0.1l0.7,0.1h0.1l1,0.1l1.5,0.9V195.2z"/>
	<path class="st13" d="M141.9,195.4l0.1,0.1l-0.5-0.1h-0.1l-0.8-0.2l-0.3-0.1l-2.8-0.5h-0.1l-0.5-0.1l-0.1-0.2l-0.3-0.4l0.1-1.6
		l1-0.4l0,0l0.6,1.4l0.1,0.2l0.4,0.6l1.7,0.5l0,0l0.8,0.5h0.1L141.9,195.4z"/>
	<path class="st13" d="M142.2,195.4L142.2,195.4H142H142.2z"/>
	<path class="st14" d="M144.2,195.2l-0.3,0.3l-0.7-1.2l-1.5-0.6h-0.1l-0.6-0.2l-0.2-0.6l0.7,0.1h0.1l1,0.1l1.5,0.9L144.2,195.2z"/>
	<path class="st19" d="M143.2,196.1l-0.2,0.8l-1-0.5l-0.4-0.2h-0.1l-0.8-0.3l-0.5-0.2l-2.2-0.4l-0.5-0.3l-0.1-0.1l-0.5-0.4l0.1-0.1
		l0,0l0.6,0.1h0.1l3,0.7l0.8,0.2h0.1l0.3,0.1h0.1L143.2,196.1z"/>
	
		<image style="overflow:visible;opacity:0.5;enable-background:new    ;" width="260" height="430" xlink:href="5F266A35EAC040B1.png"  transform="matrix(0.3596 0 0 0.3596 75.8858 128.0453)">
	</image>
</g>
</svg>
